# xmcd
#
# Track frame offsets:
#	150
#	23390
#	44500
#	63967
#	84237
#	106162
#	128467
#	147047
#	171675
#	193807
#
# Disc length: 2914 seconds
#
# Revision: 4
# Processed by: cddbd v1.5PL3 Copyright (c) Steve Scherf et al.
# Submitted via: CDex 1.50Beta5
#
DISCID=7c0b600a
DTITLE=森高千里 - ミーハー
DYEAR=1988
DGENRE=Pop
TTITLE0=オーバーヒート・ナイト
TTITLE1=YOKOHAMA ONE NIGHT
TTITLE2=GOOD-BYE SEASON
TTITLE3=CAN’T SAY GOOD-BYE
TTITLE4=PI-A-NO
TTITLE5=47 HARD NIGHTS
TTITLE6=WEEKEND BLUE
TTITLE7=KISS THE NIGHT
TTITLE8=ミーハー
TTITLE9=GET SMILE
EXTD=
EXTT0=
EXTT1=
EXTT2=
EXTT3=
EXTT4=
EXTT5=
EXTT6=
EXTT7=
EXTT8=
EXTT9=
PLAYORDER=
